<?xml version="1.0" encoding="UTF-8" standalone="no"?>
<!DOCTYPE svg PUBLIC "-//W3C//DTD SVG 1.1//EN" "http://www.w3.org/Graphics/SVG/1.1/DTD/svg11.dtd">
<svg width="100%" height="100%" viewBox="0 0 39 36" version="1.1" xmlns="http://www.w3.org/2000/svg" xmlns:xlink="http://www.w3.org/1999/xlink" xml:space="preserve" xmlns:serif="http://www.serif.com/" style="fill-rule:evenodd;clip-rule:evenodd;stroke-linejoin:round;stroke-miterlimit:2;">
    <g transform="matrix(1,0,0,1,-100.187,-456.161)">
        <g transform="matrix(1.69999,0,0,-1.69999,98.1693,1639.34)">
            <path d="M12.623,695.992C14.145,695.992 15.59,695.935 16.962,695.822C18.334,695.71 19.548,695.58 20.607,695.437C21.84,695.272 22.986,695.093 24.044,694.897C23.716,693.88 23.32,692.797 22.858,691.645C22.468,690.648 21.982,689.518 21.401,688.254C20.82,686.99 20.15,685.67 19.39,684.293C18.65,682.957 17.882,681.742 17.085,680.648C16.289,679.554 15.556,678.606 14.889,677.804C14.108,676.869 13.352,676.032 12.623,675.292C11.894,676.032 11.139,676.869 10.358,677.804C9.69,678.606 8.958,679.554 8.161,680.648C7.364,681.742 6.592,682.957 5.842,684.293C5.082,685.67 4.411,686.99 3.83,688.254C3.249,689.518 2.764,690.648 2.374,691.645C1.911,692.797 1.515,693.88 1.187,694.897C2.246,695.093 3.391,695.272 4.624,695.437C5.683,695.58 6.897,695.71 8.269,695.822C9.641,695.935 11.093,695.992 12.623,695.992Z" style="fill-rule:nonzero;"/>
        </g>
    </g>
</svg>
