<?xml version="1.0" encoding="UTF-8" standalone="no"?>
<!DOCTYPE svg PUBLIC "-//W3C//DTD SVG 1.1//EN" "http://www.w3.org/Graphics/SVG/1.1/DTD/svg11.dtd">
<svg width="100%" height="100%" viewBox="0 0 41 43" version="1.1" xmlns="http://www.w3.org/2000/svg" xmlns:xlink="http://www.w3.org/1999/xlink" xml:space="preserve" xmlns:serif="http://www.serif.com/" style="fill-rule:evenodd;clip-rule:evenodd;stroke-linejoin:round;stroke-miterlimit:2;">
    <g transform="matrix(1,0,0,1,-149.445,-449.32)">
        <g transform="matrix(1.81335,0,0,-1.81335,146.825,2028.01)">
            <path d="M15.828,866.536C16.94,866.462 17.972,866.362 18.927,866.237C19.882,866.112 20.71,865.99 21.415,865.869C22.239,865.73 22.989,865.587 23.666,865.438C23.378,864.428 23.017,863.364 22.582,862.242C22.211,861.279 21.745,860.181 21.185,858.949C20.625,857.716 19.965,856.451 19.205,855.155C18.455,853.849 17.688,852.656 16.905,851.576C16.123,850.497 15.407,849.55 14.758,848.735L17.218,857.225L20.178,859.463L17.218,861.728L15.828,866.536ZM7.963,857.212L10.381,848.735C10.057,849.114 9.714,849.541 9.352,850.013C8.991,850.486 8.619,850.993 8.234,851.535C7.849,852.077 7.46,852.651 7.066,853.258C6.673,853.865 6.285,854.497 5.906,855.155C5.138,856.451 4.475,857.716 3.919,858.949C3.363,860.181 2.9,861.279 2.529,862.242C2.094,863.364 1.733,864.428 1.445,865.438C2.122,865.587 2.877,865.73 3.71,865.869C4.415,865.99 5.243,866.112 6.198,866.237C7.153,866.362 8.189,866.462 9.311,866.536L7.963,861.77L4.933,859.463L7.963,857.212ZM14.981,857.92L12.563,847.234L10.186,857.851L7.977,859.463L10.2,861.089L12.563,870.594L14.981,861.075L17.148,859.463L14.981,857.92Z" style="fill-rule:nonzero;"/>
        </g>
    </g>
</svg>
