<?xml version="1.0" encoding="UTF-8" standalone="no"?>
<!DOCTYPE svg PUBLIC "-//W3C//DTD SVG 1.1//EN" "http://www.w3.org/Graphics/SVG/1.1/DTD/svg11.dtd">
<svg width="100%" height="100%" viewBox="0 0 419 419" version="1.1" xmlns="http://www.w3.org/2000/svg" xmlns:xlink="http://www.w3.org/1999/xlink" xml:space="preserve" xmlns:serif="http://www.serif.com/" style="fill-rule:evenodd;clip-rule:evenodd;stroke-linejoin:round;stroke-miterlimit:2;">
    <g transform="matrix(1,0,0,1,-186.969,-115.599)">
        <g id="Hit-Surge" serif:id="Hit Surge" transform="matrix(18.3674,0,0,-18.3674,169.177,14209.2)">
            <path d="M13.1,752.308L0.969,744.513L8.764,756.582L8.241,760.073L11.731,759.504L23.77,767.314L16.006,755.214L16.528,751.739L13.1,752.308ZM2.798,751.939C2.552,752.554 2.349,753.195 2.191,753.861C2.033,754.527 1.953,755.214 1.953,755.921C1.953,756.67 2.037,757.397 2.206,758.105C2.375,758.812 2.609,759.488 2.906,760.134C3.09,760.595 3.356,762.579 3.275,763.071L2.906,765.392C2.906,765.392 5.53,765 5.643,764.985C5.755,764.97 7.837,765.234 8.164,765.408C8.821,765.704 9.502,765.931 10.209,766.084C10.916,766.238 11.639,766.315 12.377,766.315C13.084,766.315 13.765,766.241 14.422,766.092C15.078,765.943 15.729,765.751 16.375,765.515L11.162,762.164L5.212,763.086L6.165,757.151L2.798,751.939ZM21.971,759.873C22.217,759.227 22.412,758.578 22.555,757.928C22.698,757.277 22.771,756.609 22.771,755.921C22.771,755.183 22.694,754.461 22.54,753.753C22.386,753.046 21.525,750.768 21.464,750.271C21.402,749.774 21.413,749.279 21.494,748.787L21.848,746.45C21.848,746.45 18.876,746.865 18.712,746.865C18.373,746.865 16.948,746.624 16.621,746.45C15.955,746.153 15.268,745.92 14.56,745.751C13.853,745.581 13.126,745.497 12.377,745.497C11.67,745.497 10.993,745.577 10.347,745.735C9.702,745.894 9.067,746.092 8.441,746.327L13.73,749.602L19.557,748.756L18.619,754.584L21.971,759.873Z" style="fill-rule:nonzero;"/>
        </g>
    </g>
</svg>
