<?xml version="1.0" encoding="UTF-8" standalone="no"?>
<!DOCTYPE svg PUBLIC "-//W3C//DTD SVG 1.1//EN" "http://www.w3.org/Graphics/SVG/1.1/DTD/svg11.dtd">
<svg width="100%" height="100%" viewBox="0 0 40 40" version="1.1" xmlns="http://www.w3.org/2000/svg" xmlns:xlink="http://www.w3.org/1999/xlink" xml:space="preserve" xmlns:serif="http://www.serif.com/" style="fill-rule:evenodd;clip-rule:evenodd;stroke-linejoin:round;stroke-miterlimit:2;">
    <g transform="matrix(1,0,0,1,-247.454,-454.044)">
        <g transform="matrix(1.86909,0,0,-1.86909,243.989,1699.84)">
            <path d="M12.492,665.843C12.692,665.53 14.175,663.692 14.471,663.496C14.766,663.301 15.119,663.142 15.531,663.02C15.586,662.999 15.648,662.974 15.715,662.945C15.782,662.917 15.865,662.903 15.965,662.903C16.244,662.903 16.575,662.979 16.959,663.129C17.343,663.279 22.851,666.427 23.13,666.527C23.018,666.215 19.751,660.165 19.639,659.797C19.527,659.43 19.522,659.141 19.623,658.929C19.734,658.516 19.886,658.166 20.082,657.877C20.277,657.588 22.133,656.09 22.445,655.889C22.133,655.689 20.277,654.206 20.082,653.91C19.886,653.615 19.734,653.263 19.623,652.85C19.534,652.638 19.542,652.346 19.648,651.973C19.753,651.601 19.918,651.183 20.14,650.721C20.362,650.258 23.018,645.564 23.13,645.252C22.851,645.352 17.343,648.483 16.959,648.633C16.575,648.784 16.244,648.859 15.965,648.859C15.787,648.859 15.643,648.83 15.531,648.775C15.119,648.653 14.766,648.495 14.471,648.299C14.175,648.104 12.692,646.248 12.492,645.936C12.291,646.248 10.777,648.104 10.488,648.299C10.199,648.495 9.848,648.653 9.436,648.775C9.324,648.83 9.18,648.859 9.001,648.859C8.734,648.859 8.408,648.784 8.024,648.633C7.64,648.483 2.121,645.352 1.854,645.252C1.954,645.564 4.606,650.258 4.835,650.721C5.063,651.183 5.23,651.601 5.336,651.973C5.441,652.346 5.449,652.638 5.361,652.85C5.239,653.263 5.08,653.615 4.885,653.91C4.689,654.206 2.817,655.689 2.505,655.889C2.788,656.071 4.689,657.588 4.885,657.877C5.08,658.166 5.239,658.516 5.361,658.929C5.449,659.141 5.441,659.43 5.336,659.797C5.23,660.165 5.065,660.577 4.843,661.033C4.621,661.489 1.954,666.215 1.854,666.527C2.121,666.427 7.637,663.279 8.016,663.129C8.395,662.979 8.722,662.903 9.001,662.903C9.102,662.903 9.185,662.917 9.252,662.945C9.319,662.974 9.38,662.999 9.436,663.02C9.848,663.142 10.199,663.301 10.488,663.496C10.777,663.692 12.291,665.53 12.492,665.843Z"/>
        </g>
    </g>
</svg>
