<?xml version="1.0" encoding="UTF-8" standalone="no"?>
<!DOCTYPE svg PUBLIC "-//W3C//DTD SVG 1.1//EN" "http://www.w3.org/Graphics/SVG/1.1/DTD/svg11.dtd">
<svg width="100%" height="100%" viewBox="0 0 413 413" version="1.1" xmlns="http://www.w3.org/2000/svg" xmlns:xlink="http://www.w3.org/1999/xlink" xml:space="preserve" xmlns:serif="http://www.serif.com/" style="fill-rule:evenodd;clip-rule:evenodd;stroke-linejoin:round;stroke-miterlimit:2;">
    <g transform="matrix(1,0,0,1,-189.986,-115.561)">
        <g id="Range-2-circle" serif:id="Range 2 circle" transform="matrix(0.990476,0,0,0.990476,7.73333,8.01905)">
            <path d="M184.023,287.764C197.081,194.179 271.916,120.264 365.939,108.604C367.157,109.751 366.709,111.998 366.709,111.998L366.709,149.353C366.709,149.353 382.109,147.334 393.969,147.334C405.828,147.334 416.18,149.353 416.18,149.353L416.18,109.978C416.18,109.978 416.102,109.19 417.835,108.576C512.697,120.235 588.073,195.259 600.271,289.954C599.105,291.078 596.952,290.649 596.952,290.649L559.596,290.649C559.596,290.649 561.615,306.049 561.615,317.909C561.615,329.768 559.596,340.12 559.596,340.12L598.971,340.12C598.971,340.12 599.878,340.03 600.503,342.18C589.215,436.469 515.346,511.641 421.678,524.915C421.572,524.917 421.456,524.922 421.329,524.93C417.442,525.195 418.3,520.892 418.3,520.892L418.3,483.536C418.3,483.536 402.9,485.555 391.041,485.555C379.181,485.555 368.829,483.536 368.829,483.536L368.829,522.911C368.829,522.911 368.989,524.525 363.781,524.93C363.531,524.95 363.321,524.984 363.149,525.031C270.396,512.263 196.885,438.827 184.005,346.11C184.039,345.918 184.045,345.641 184.019,345.269C183.755,341.382 188.058,342.24 188.058,342.24L225.413,342.24C225.413,342.24 223.394,326.84 223.394,314.981C223.394,303.121 225.413,292.769 225.413,292.769L186.038,292.769C186.038,292.769 184.434,292.928 184.023,287.764ZM320.317,250.365L411.183,251.375C411.183,251.375 424.308,249.309 424.308,270.558C424.308,291.806 411.183,291.76 411.183,291.76L386.952,291.76C386.952,291.76 352.558,289.808 335.462,306.904C318.365,324 320.317,354.356 320.317,354.356L320.317,427.048L471.76,427.048L471.76,379.596L368.779,379.596L368.779,353.346C368.779,353.346 367.843,348.224 372.817,343.25C377.791,338.276 386.952,339.212 386.952,339.212L412.192,339.212C412.192,339.212 472.769,344.805 472.769,271.567C472.769,198.329 411.183,202.913 411.183,202.913L320.317,202.913L320.317,250.365Z"/>
        </g>
    </g>
</svg>
