<?xml version="1.0" encoding="UTF-8" standalone="no"?>
<!DOCTYPE svg PUBLIC "-//W3C//DTD SVG 1.1//EN" "http://www.w3.org/Graphics/SVG/1.1/DTD/svg11.dtd">
<svg width="100%" height="100%" viewBox="0 0 413 413" version="1.1" xmlns="http://www.w3.org/2000/svg" xmlns:xlink="http://www.w3.org/1999/xlink" xml:space="preserve" xmlns:serif="http://www.serif.com/" style="fill-rule:evenodd;clip-rule:evenodd;stroke-linejoin:round;stroke-miterlimit:2;">
    <g transform="matrix(1,0,0,1,-189.986,-115.561)">
        <g id="Range-circle-infinite" serif:id="Range circle infinite" transform="matrix(0.990476,0,0,0.990476,7.73333,8.01905)">
            <path d="M184.023,287.764C197.081,194.179 271.916,120.264 365.939,108.604C367.157,109.751 366.709,111.998 366.709,111.998L366.709,207.911C366.709,207.911 382.109,205.892 393.969,205.892C405.828,205.892 416.18,207.911 416.18,207.911L416.18,109.978C416.18,109.978 416.102,109.19 417.835,108.576C512.697,120.235 588.073,195.259 600.271,289.954C599.105,291.078 596.952,290.649 596.952,290.649L501.038,290.649C501.038,290.649 503.058,306.049 503.058,317.909C503.058,329.768 501.038,340.12 501.038,340.12L598.971,340.12C598.971,340.12 599.878,340.03 600.503,342.18C589.215,436.469 515.346,511.641 421.678,524.915C421.572,524.917 421.456,524.922 421.329,524.93C417.442,525.195 418.3,520.892 418.3,520.892L418.3,426.998C418.3,426.998 402.9,429.017 391.041,429.017C379.181,429.017 368.829,426.998 368.829,426.998L368.829,522.911C368.829,522.911 368.989,524.525 363.781,524.93C363.531,524.95 363.321,524.984 363.149,525.031C270.396,512.263 196.885,438.827 184.005,346.11C184.039,345.918 184.045,345.641 184.019,345.269C183.755,341.382 188.058,342.24 188.058,342.24L281.952,342.24C281.952,342.24 279.933,326.84 279.933,314.981C279.933,303.121 281.952,292.769 281.952,292.769L186.038,292.769C186.038,292.769 184.434,292.928 184.023,287.764ZM392.254,274.4C368.851,274.4 349.85,293.4 349.85,316.804C349.85,340.207 368.851,359.207 392.254,359.207C415.657,359.207 434.658,340.207 434.658,316.804C434.658,293.4 415.657,274.4 392.254,274.4Z"/>
        </g>
    </g>
</svg>
