<?xml version="1.0" encoding="UTF-8" standalone="no"?>
<!DOCTYPE svg PUBLIC "-//W3C//DTD SVG 1.1//EN" "http://www.w3.org/Graphics/SVG/1.1/DTD/svg11.dtd">
<svg width="100%" height="100%" viewBox="0 0 36 60" version="1.1" xmlns="http://www.w3.org/2000/svg" xmlns:xlink="http://www.w3.org/1999/xlink" xml:space="preserve" xmlns:serif="http://www.serif.com/" style="fill-rule:evenodd;clip-rule:evenodd;stroke-linejoin:round;stroke-miterlimit:2;">
    <g transform="matrix(1,0,0,1,-44.6041,-1004)">
        <path d="M59,1007C59,1007 61.082,1003.9 63,1004C64.918,1004.1 67.129,1005.94 68,1007C68.871,1008.07 68.573,1011.23 69,1012C69.427,1012.77 73.875,1015.62 74,1017C74.125,1018.38 74.051,1033.84 73,1034C71.949,1034.16 70.622,1033.86 70,1035C69.378,1036.14 70,1037 70,1037L79,1048C79,1048 77.45,1048.11 78,1049C78.55,1049.89 80.413,1051.42 80,1052C79.587,1052.58 78.273,1051.52 78,1052C77.727,1052.48 78.813,1053.47 78,1054C77.187,1054.53 76.986,1053.08 76,1054C75.014,1054.92 75.884,1056 75,1056C74.116,1056 64.728,1043.9 63,1044C61.272,1044.1 57.782,1049.33 57,1050C56.218,1050.67 52.468,1053.92 52,1055C51.532,1056.08 50.738,1059.37 51,1060C51.262,1060.63 51.985,1062.9 51,1063C50.015,1063.1 46.161,1062.28 46,1061C45.839,1059.72 46.437,1057.55 47,1056C47.563,1054.45 49.901,1050.7 51,1049C52.099,1047.3 53.242,1043.51 54,1043C54.758,1042.49 56.56,1038.81 55,1038C53.44,1037.19 50.198,1039.93 50,1041C49.802,1042.07 48.899,1044.53 48,1045C47.101,1045.47 45.485,1045.37 45,1045C44.515,1044.63 44.431,1043.18 45,1042C45.569,1040.82 47.888,1038.77 48,1038C48.112,1037.24 47.369,1032.72 48,1032C48.631,1031.28 50.009,1030.37 50,1029C49.991,1027.63 48.908,1028.66 49,1027C49.092,1025.34 50.927,1024.75 51,1023C51.073,1021.25 46.899,1019.25 47,1017C47.101,1014.75 49.476,1012.25 51,1011C52.524,1009.75 59,1007 59,1007Z"/>
    </g>
</svg>
