<?xml version="1.0" encoding="UTF-8" standalone="no"?>
<!DOCTYPE svg PUBLIC "-//W3C//DTD SVG 1.1//EN" "http://www.w3.org/Graphics/SVG/1.1/DTD/svg11.dtd">
<svg width="100%" height="100%" viewBox="0 0 76 76" version="1.1" xmlns="http://www.w3.org/2000/svg" xmlns:xlink="http://www.w3.org/1999/xlink" xml:space="preserve" xmlns:serif="http://www.serif.com/" style="fill-rule:evenodd;clip-rule:evenodd;stroke-linecap:round;stroke-linejoin:round;stroke-miterlimit:1.5;">
    <g transform="matrix(1,0,0,1,-23.75,-985.75)">
        <g transform="matrix(1.01389,0,0,1.01389,-0.347222,-12.6944)">
            <circle cx="61" cy="1022" r="36" style="fill:none;stroke:black;stroke-width:2.47px;"/>
        </g>
        <path d="M37,1045C37,1045 39.046,1039.06 40,1038C40.954,1036.94 46,1034 46,1034C46,1034 47.079,1039.84 48,1041C48.921,1042.16 51,1046 51,1046L46,1052L37,1045Z"/>
        <path d="M53,1047L57,1043L61,1048L57,1051L53,1047Z"/>
        <path d="M62,1048C62,1048 68.564,1041.23 71,1040C73.436,1038.77 85.63,1031.74 86,1032C86.37,1032.26 91,1037 91,1037C91,1037 85.757,1046.46 84,1048C82.243,1049.54 71,1055 71,1055L62,1048Z"/>
        <path d="M53,1056L57,1052L60,1056C60,1056 57.39,1056.16 56,1056C54.61,1055.84 53,1056 53,1056"/>
        <path d="M57,1042C57,1042 54.721,1038.52 54,1037C53.279,1035.48 53,1032 53,1032C53,1032 57.107,1032.76 59,1031C60.893,1029.24 63,1027 63,1027C63,1027 58.754,1029.09 56,1029C53.246,1028.91 50.418,1027.54 50,1027C49.582,1026.46 49.987,1023.08 49,1022C48.013,1020.92 46.158,1022.43 46,1021C45.842,1019.57 45.869,1011.4 47,1011C48.131,1010.6 53.867,1009.47 55,1010C56.133,1010.53 63.439,1011.79 64,1013C64.561,1014.21 64.43,1017.67 65,1018C65.57,1018.33 65.137,1017.84 66,1019C66.863,1020.17 69.524,1023.3 70,1024C70.476,1024.7 70.014,1025.62 71,1026C71.986,1026.38 75.58,1026.44 76,1028C76.42,1029.56 75.734,1029.36 75,1030C74.266,1030.64 67.679,1033.37 66,1035C64.321,1036.63 57,1042 57,1042Z"/>
        <path d="M45,1009L45,1007C45,1007 47.536,1006.92 48,1006C48.464,1005.08 51.649,996.164 62,997C72.351,997.836 72.392,1002.44 73,1004C73.608,1005.56 73.622,1008.15 74,1010C74.378,1011.85 75.083,1012.35 75,1014C74.917,1015.65 74.079,1020.41 73,1021C71.921,1021.59 71.049,1021.35 70,1021C68.951,1020.65 67.077,1018.42 67,1017C66.923,1015.58 67,1011 67,1011C67,1011 60.585,1007.75 57,1008C53.415,1008.25 45,1009 45,1009Z"/>
    </g>
</svg>
