<?xml version="1.0" standalone="no"?>
<!DOCTYPE svg PUBLIC "-//W3C//DTD SVG 1.1//EN" "http://www.w3.org/Graphics/SVG/1.1/DTD/svg11.dtd" >
<svg xmlns="http://www.w3.org/2000/svg" xmlns:xlink="http://www.w3.org/1999/xlink" version="1.1">
<metadata>
Created by FontForge 20200511 at Sat Jun 13 00:12:17 2020
 By convertio
CC-0 Public Domain
</metadata>
<defs>
<font id="TFGunray-Bold" horiz-adv-x="1081" >
  <font-face 
    font-family="TFGunray"
    font-weight="700"
    font-stretch="normal"
    units-per-em="1000"
    panose-1="2 0 8 3 0 0 0 0 0 0"
    ascent="800"
    descent="-200"
    x-height="799.04"
    cap-height="799.04"
    bbox="75 10.96 1094.04 800"
    underline-thickness="50"
    underline-position="-100"
    stemh="131"
    stemv="131"
    unicode-range="U+0020-007A"
  />
<missing-glyph horiz-adv-x="402" 
d="M201.011 259.05c-69.6807 0 -126.011 66.1406 -126.011 147.95s56.3301 147.94 126.011 147.94c69.6797 0 126.01 -66.1309 126.01 -147.94s-56.3301 -147.95 -126.01 -147.95z" />
    <glyph glyph-name=".notdef" horiz-adv-x="402" 
d="M201.011 259.05c-69.6807 0 -126.011 66.1406 -126.011 147.95s56.3301 147.94 126.011 147.94c69.6797 0 126.01 -66.1309 126.01 -147.94s-56.3301 -147.95 -126.01 -147.95z" />
    <glyph glyph-name="uni0000" horiz-adv-x="402" 
d="M201.011 259.05c-69.6807 0 -126.011 66.1406 -126.011 147.95s56.3301 147.94 126.011 147.94c69.6797 0 126.01 -66.1309 126.01 -147.94s-56.3301 -147.95 -126.01 -147.95z" />
    <glyph glyph-name="uni0000" horiz-adv-x="402" 
d="M201.011 259.05c-69.6807 0 -126.011 66.1406 -126.011 147.95s56.3301 147.94 126.011 147.94c69.6797 0 126.01 -66.1309 126.01 -147.94s-56.3301 -147.95 -126.01 -147.95z" />
    <glyph glyph-name="space" unicode=" " horiz-adv-x="500" 
 />
    <glyph glyph-name="parenleft" unicode="(" horiz-adv-x="418" 
d="M75 407c0 194.26 115.21 355.82 268.449 392.29v-163.24c-70.6895 -36.2998 -120.529 -125.08 -120.529 -229.06c0 -103.971 49.8398 -192.76 120.529 -229.05v-163.23c-153.239 36.4697 -268.449 198.03 -268.449 392.29z" />
    <glyph glyph-name="parenright" unicode=")" horiz-adv-x="418" 
d="M75 14.71v163.23c70.6904 36.29 120.53 125.079 120.53 229.05c0 103.979 -49.8398 192.76 -120.53 229.06v163.24c153.24 -36.4697 268.46 -198.03 268.46 -392.29s-115.22 -355.82 -268.46 -392.29z" />
    <glyph glyph-name="zero" unicode="0" horiz-adv-x="402" 
d="M201.011 259.05c-69.6807 0 -126.011 66.1406 -126.011 147.95s56.3301 147.94 126.011 147.94c69.6797 0 126.01 -66.1309 126.01 -147.94s-56.3301 -147.95 -126.01 -147.95z" />
    <glyph glyph-name="one" unicode="1" horiz-adv-x="281" 
d="M75 799.04h131.49v-778.08h-131.49v778.08z" />
    <glyph glyph-name="two" unicode="2" horiz-adv-x="511" 
d="M75 799.04h131.49v-778.08h-131.49v778.08zM436.6 20.96h-186.279v131.51h54.7891v646.57h131.49v-778.08z" />
    <glyph glyph-name="three" unicode="3" horiz-adv-x="358" 
d="M75 22.0303v120.68c42.8799 3.19043 76.7002 43.5205 76.7002 92.9502c0 49.4199 -33.8203 89.7598 -76.7002 92.9502v164.779c42.8799 3.19043 76.7002 43.5303 76.7002 92.9502c0 49.4297 -33.8203 89.7598 -76.7002 92.9502v120.68
c115.62 -2.89941 208.19 -97.2793 208.19 -213.63c0 -72.6494 -36.1006 -136.74 -91.3701 -175.34c55.2695 -38.5996 91.3701 -102.69 91.3701 -175.34c0 -116.351 -92.5703 -210.73 -208.19 -213.63z" />
    <glyph glyph-name="four" unicode="4" horiz-adv-x="599" 
d="M392.77 796.04h131.49v-778.08h-131.49v778.08zM75 14.71v163.23c70.6895 36.29 120.54 125.079 120.54 229.05c0 103.979 -49.8506 192.76 -120.54 229.06v163.24c153.25 -36.4697 268.46 -198.03 268.46 -392.29s-115.21 -355.82 -268.46 -392.29z" />
    <glyph glyph-name="five" unicode="5" horiz-adv-x="818" 
d="M381.81 796.04h131.49v-778.08h-131.49v778.08zM743.41 17.96h-186.28v131.51h54.79v646.57h131.49v-778.08zM75 14.71v163.23c70.6895 36.29 120.54 125.079 120.54 229.05c0 103.979 -49.8506 192.76 -120.54 229.06v163.24
c153.25 -36.4697 268.46 -198.03 268.46 -392.29s-115.21 -355.82 -268.46 -392.29z" />
    <glyph glyph-name="six" unicode="6" horiz-adv-x="648" 
d="M305.1 14.71v163.23c70.6904 36.29 120.54 125.079 120.54 229.05c0 103.979 -49.8496 192.76 -120.54 229.06v163.24c153.25 -36.4697 268.46 -198.03 268.46 -392.29s-115.21 -355.82 -268.46 -392.29zM75 796.04h131.49v-778.08h-131.49v778.08z" />
    <glyph glyph-name="seven" unicode="7" horiz-adv-x="599" 
d="M75 796.04h131.49v-778.08h-131.49v778.08zM255.8 407c0 194.26 115.21 355.82 268.45 392.29v-163.24c-70.6904 -36.2998 -120.53 -125.08 -120.53 -229.06c0 -103.971 49.8398 -192.76 120.53 -229.05v-163.23c-153.24 36.4697 -268.45 198.03 -268.45 392.29z" />
    <glyph glyph-name="eight" unicode="8" horiz-adv-x="402" 
d="M201.01 467.15c-69.6895 0 -126.01 66.1299 -126.01 147.949c0 81.8105 56.3203 147.94 126.01 147.94c69.6807 0 126.011 -66.1299 126.011 -147.94c0 -81.8193 -56.3301 -147.949 -126.011 -147.949zM201.01 39.75c-69.6895 0 -126.01 66.1299 -126.01 147.95
c0 81.8096 56.3203 147.939 126.01 147.939c69.6807 0 126.011 -66.1299 126.011 -147.939c0 -81.8203 -56.3301 -147.95 -126.011 -147.95z" />
    <glyph glyph-name="nine" unicode="9" horiz-adv-x="649" 
d="M75 407.71c0 194.26 115.22 355.82 268.46 392.29v-163.24c-70.6904 -36.2998 -120.53 -125.08 -120.53 -229.06c0 -103.97 49.8398 -192.76 120.53 -229.05v-163.23c-153.24 36.4697 -268.46 198.03 -268.46 392.29zM574 18.96h-131.49v778.08h131.49v-778.08z" />
    <glyph glyph-name="A" unicode="A" horiz-adv-x="1070" 
d="M75 294.93h151.35c27.2305 -54.4102 77.5703 -87.1602 133.54 -104.52v477.12h-87.6592v131.51h219.149v-772.6c-206.189 0 -377.67 115.229 -416.38 268.489zM995.42 294.93c-38.71 -153.26 -210.189 -268.489 -416.38 -268.489v772.6h219.15v-131.51h-87.6602v-477.12
c55.9697 17.3594 106.31 50.1094 133.54 104.52h151.35z" />
    <glyph glyph-name="B" unicode="B" horiz-adv-x="610" 
d="M75 11.0303v120.68c42.8799 3.19043 76.7002 43.5205 76.7002 92.9502c0 49.4199 -33.8203 89.7598 -76.7002 92.9502v164.79c42.8799 3.17969 76.7002 43.5195 76.7002 92.9395c0 49.4297 -33.8203 89.7598 -76.7002 92.9502v120.68
c115.62 -2.89941 208.19 -97.2793 208.19 -213.63c0 -72.6494 -36.1006 -136.74 -91.3701 -175.34c55.2695 -38.5996 91.3701 -102.69 91.3701 -175.34c0 -116.351 -92.5703 -210.73 -208.19 -213.63zM316.06 789.04h219.15v-131.51h-87.6602v-515.061h87.6602v-131.51
h-219.15v778.08z" />
    <glyph glyph-name="C" unicode="C" horiz-adv-x="1048" 
d="M524.25 467.27c-69.6807 0 -126.011 66.1406 -126.011 147.95c0 81.8105 56.3301 147.94 126.011 147.94c69.6895 0 126.01 -66.1299 126.01 -147.94c0 -81.8096 -56.3203 -147.95 -126.01 -147.95zM524.25 50.8398c-69.6807 0 -126.011 66.1299 -126.011 147.94
c0 81.8096 56.3301 147.95 126.011 147.95c69.6895 0 126.01 -66.1406 126.01 -147.95c0 -81.8105 -56.3203 -147.94 -126.01 -147.94zM75 407c0 194.26 115.21 355.82 268.449 392.29v-163.24c-70.6895 -36.2998 -120.529 -125.08 -120.529 -229.06
c0 -103.971 49.8398 -192.76 120.529 -229.05v-163.23c-153.239 36.4697 -268.449 198.03 -268.449 392.29zM973.51 407c0 -194.26 -115.22 -355.82 -268.46 -392.29v163.23c70.6895 36.29 120.529 125.079 120.529 229.05c0 103.979 -49.8398 192.76 -120.529 229.06
v163.24c153.24 -36.4697 268.46 -198.03 268.46 -392.29z" />
    <glyph glyph-name="D" unicode="D" horiz-adv-x="818" 
d="M743.4 17.96h-219.15v131.51h87.6602v515.061h-87.6602v131.51h219.15v-778.08zM469.47 799.29v-163.24c-70.6895 -36.2998 -120.54 -125.08 -120.54 -229.06c0 -103.971 49.8506 -192.76 120.54 -229.05v-163.23c-134.06 31.9102 -239.02 159.54 -263.199 321.06
h-131.271v142.461h131.271c24.1797 161.52 129.14 289.149 263.199 321.06z" />
    <glyph glyph-name="E" unicode="E" horiz-adv-x="719" 
d="M272.23 799.04h131.489v-778.08h-131.489v778.08zM75 799.04h131.49v-778.08h-131.49v778.08zM436.59 234.66c0 72.6494 36.1006 136.74 91.3701 175.34c-55.2695 38.5996 -91.3701 102.69 -91.3701 175.34c0 116.351 92.5801 210.73 208.19 213.63v-120.68
c-42.8799 -3.19043 -76.7002 -43.5205 -76.7002 -92.9502c0 -49.4199 33.8203 -89.7598 76.7002 -92.9395v-164.79c-42.8799 -3.19043 -76.7002 -43.5303 -76.7002 -92.9502c0 -49.4297 33.8203 -89.7598 76.7002 -92.9502v-120.68
c-115.61 2.89941 -208.19 97.2793 -208.19 213.63z" />
    <glyph glyph-name="F" unicode="F" horiz-adv-x="862" 
d="M787.23 525.07h-151.351c-27.2295 54.4102 -77.5703 87.1602 -133.54 104.52v-477.12h87.6602v-131.51h-219.15v772.6c206.19 0 377.671 -115.229 416.381 -268.489zM294.15 20.96h-219.15v131.51h87.6602v646.57h131.49v-778.08z" />
    <glyph glyph-name="G" unicode="G" horiz-adv-x="741" 
d="M666.7 17.96h-219.15v131.51h87.6602v515.061h-87.6602v131.51h219.15v-778.08zM140.74 14.71v163.23c53.8496 27.6494 95.5996 85.75 112.439 157.829h-178.18v142.461h178.18c-16.8398 72.0693 -58.5898 130.17 -112.439 157.819v163.24
c153.24 -36.4697 268.46 -198.03 268.46 -392.29s-115.22 -355.82 -268.46 -392.29z" />
    <glyph glyph-name="H" unicode="H" horiz-adv-x="675" 
d="M294.15 20.96h-219.15v131.51h87.6602v646.57h131.49v-778.08zM381.81 20.96v778.08h131.48v-646.57h87.6602v-131.51h-219.141z" />
    <glyph glyph-name="I" unicode="I" 
d="M75 305.89h151.35c27.2305 -54.4092 77.5703 -87.1592 133.54 -104.52v246.99h131.49v-410.96c-206.189 0 -377.67 115.229 -416.38 268.489zM590 37.4004v410.96h131.49v-246.99c55.96 17.3604 106.31 50.1104 133.54 104.52h151.35
c-38.71 -153.26 -210.189 -268.489 -416.38 -268.489zM540.69 503.15c-69.6807 0 -126.011 66.1299 -126.011 147.949c0 81.8105 56.3301 147.94 126.011 147.94c69.6797 0 126.01 -66.1299 126.01 -147.94c0 -81.8193 -56.3301 -147.949 -126.01 -147.949z" />
    <glyph glyph-name="J" unicode="J" horiz-adv-x="917" 
d="M75 294.93h151.35c27.2305 -54.4102 77.5703 -87.1602 133.54 -104.52v477.12h-87.6592v131.51h219.149v-772.6c-206.189 0 -377.67 115.229 -416.38 268.489zM716.01 470.27c-69.6895 0 -126.01 66.1406 -126.01 147.95c0 81.8105 56.3203 147.94 126.01 147.94
c69.6807 0 126.011 -66.1299 126.011 -147.94c0 -81.8096 -56.3301 -147.95 -126.011 -147.95zM716.01 42.8799c-69.6895 0 -126.01 66.1299 -126.01 147.94c0 81.8193 56.3203 147.949 126.01 147.949c69.6807 0 126.011 -66.1299 126.011 -147.949
c0 -81.8105 -56.3301 -147.94 -126.011 -147.94z" />
    <glyph glyph-name="K" unicode="K" horiz-adv-x="648" 
d="M75 407c0 194.26 115.21 355.82 268.449 392.29v-163.24c-53.8398 -27.6494 -95.5898 -85.75 -112.43 -157.819h211.05v317.81h131.49v-778.08h-131.49v317.81h-211.05c16.8301 -72.0791 58.5898 -130.18 112.43 -157.829v-163.23
c-153.239 36.4697 -268.449 198.03 -268.449 392.29z" />
    <glyph glyph-name="L" unicode="L" horiz-adv-x="917" 
d="M392.76 799.04h131.49v-642.51c83.5498 25.9795 112.99 68.71 166.42 127.439h151.351c-68.1406 -120.649 -185.851 -269.25 -383.511 -268.489c-198.18 -1.44043 -315.37 147.84 -383.51 268.489h151.35c53.4209 -58.7295 82.8604 -101.46 166.41 -127.439v642.51z" />
    <glyph glyph-name="M" unicode="M" horiz-adv-x="917" 
d="M392.77 796.04h131.49v-778.08h-131.49v778.08zM343.46 407c0 -194.26 -115.21 -355.82 -268.46 -392.29v163.23c70.6895 36.29 120.54 125.079 120.54 229.05c0 103.979 -49.8506 192.76 -120.54 229.06v163.24c153.25 -36.4697 268.46 -198.03 268.46 -392.29z
M573.57 407c0 194.26 115.21 355.82 268.46 392.29v-163.24c-70.6904 -36.2998 -120.54 -125.08 -120.54 -229.06c0 -103.971 49.8496 -192.76 120.54 -229.05v-163.23c-153.25 36.4697 -268.46 198.03 -268.46 392.29z" />
    <glyph glyph-name="N" unicode="N" horiz-adv-x="686" 
d="M294.15 796.04v-778.08h-219.15v131.51h87.6602v515.061h-87.6602v131.51h219.15zM343.45 407c0 194.26 115.22 355.82 268.46 392.29v-163.24c-70.6904 -36.2998 -120.53 -125.08 -120.53 -229.06c0 -103.971 49.8398 -192.76 120.53 -229.05v-163.23
c-153.24 36.4697 -268.46 198.03 -268.46 392.29z" />
    <glyph glyph-name="O" unicode="O" horiz-adv-x="1169" 
d="M699.57 14.71v163.23c70.6895 36.29 120.529 125.079 120.529 229.05c0 103.979 -49.8398 192.76 -120.529 229.06v163.24c134.06 -31.9102 239.02 -159.54 263.189 -321.06h131.28v-142.461h-131.28c-24.1699 -161.52 -129.13 -289.149 -263.189 -321.06zM469.46 799.29
v-163.24c-70.6895 -36.2998 -120.53 -125.08 -120.53 -229.06c0 -103.971 49.8408 -192.76 120.53 -229.05v-163.23c-134.05 31.9102 -239.01 159.54 -263.189 321.06h-131.271v142.461h131.271c24.1797 161.52 129.13 289.149 263.189 321.06zM584.521 259.05
c-69.6807 0 -126.011 66.1406 -126.011 147.95s56.3301 147.94 126.011 147.94c69.6797 0 126.01 -66.1309 126.01 -147.94s-56.3301 -147.95 -126.01 -147.95z" />
    <glyph glyph-name="P" unicode="P" horiz-adv-x="763" 
d="M75 574.38c0 116.351 92.5703 210.74 208.19 213.63v-120.68c-42.8906 -3.19043 -76.7002 -43.5205 -76.7002 -92.9502c0 -49.4199 33.8096 -89.7598 76.7002 -92.9395v-120.69c-115.62 2.90039 -208.19 97.29 -208.19 213.63zM688.61 574.38
c0 -116.34 -92.5703 -210.729 -208.19 -213.63v120.69c42.8896 3.17969 76.7002 43.5195 76.7002 92.9395c0 49.4297 -33.8105 89.7598 -76.7002 92.9502v120.68c115.62 -2.88965 208.19 -97.2793 208.19 -213.63zM447.55 20.96h-219.149v131.51h87.6592v646.57h131.49
v-778.08z" />
    <glyph glyph-name="Q" unicode="Q" horiz-adv-x="692" 
d="M348.93 14.71v163.23c53.8506 27.6494 95.6006 85.75 112.44 157.829h-178.18v142.461h178.18c-16.8398 72.0693 -58.5898 130.17 -112.44 157.819v163.24c153.25 -36.4697 268.46 -198.03 268.46 -392.29s-115.21 -355.82 -268.46 -392.29zM75 796.04h131.49v-646.57
h87.6602v-131.51h-219.15v778.08z" />
    <glyph glyph-name="R" unicode="R" horiz-adv-x="960" 
d="M885.85 407c0 -194.26 -115.22 -355.82 -268.46 -392.29v163.23c70.6895 36.29 120.53 125.079 120.53 229.05c0 103.979 -49.8408 192.76 -120.53 229.06v163.24c153.24 -36.4697 268.46 -198.03 268.46 -392.29zM75 407c0 194.26 115.21 355.82 268.449 392.29v-163.24
c-70.6895 -36.2998 -120.529 -125.08 -120.529 -229.06c0 -103.971 49.8398 -192.76 120.529 -229.05v-163.23c-153.239 36.4697 -268.449 198.03 -268.449 392.29zM387.279 796.04h186.28v-131.51h-54.79v-515.061h54.79v-131.51h-186.28v778.08z" />
    <glyph glyph-name="S" unicode="S" 
d="M75 294.93h151.35c27.2305 -54.4102 77.5703 -87.1602 133.54 -104.52v477.12h-87.6592v131.51h219.149v-772.6c-206.189 0 -377.67 115.229 -416.38 268.489zM1006.38 525.07h-151.35c-27.2305 54.4102 -77.5801 87.1602 -133.54 104.52v-477.12h87.6602v-131.51
h-219.15v772.6c206.19 0 377.67 -115.229 416.38 -268.489z" />
    <glyph glyph-name="T" unicode="T" 
d="M1006.38 531.03h-151.35c-27.2305 54.3994 -77.5801 87.1602 -133.54 104.52v-246.99h-131.49v410.96c206.19 0 377.67 -115.229 416.38 -268.489zM491.38 799.52v-410.96h-131.49v246.99c-55.9697 -17.3594 -106.31 -50.1201 -133.54 -104.52h-151.35
c38.71 153.26 210.19 268.489 416.38 268.489zM540.69 37.8799c-69.6807 0 -126.011 66.1299 -126.011 147.94c0 81.8193 56.3301 147.949 126.011 147.949c69.6797 0 126.01 -66.1299 126.01 -147.949c0 -81.8105 -56.3301 -147.94 -126.01 -147.94z" />
    <glyph glyph-name="U" unicode="U" horiz-adv-x="796" 
d="M316.06 799.04h131.49v-778.08h-372.55v778.08h131.49v-646.57h109.569v646.57zM721.49 20.96h-219.15v131.51h87.6602v646.57h131.49v-778.08z" />
    <glyph glyph-name="V" unicode="V" horiz-adv-x="643" 
d="M343.46 407c0 -194.26 -115.21 -355.82 -268.46 -392.29v163.23c70.6895 36.29 120.54 125.079 120.54 229.05c0 103.979 -49.8506 192.76 -120.54 229.06v163.24c153.25 -36.4697 268.46 -198.03 268.46 -392.29zM568.09 17.96h-219.15v131.51h87.6602v646.57h131.49
v-778.08z" />
    <glyph glyph-name="W" unicode="W" horiz-adv-x="873" 
d="M370.85 799.04h131.49v-778.08h-131.49v778.08zM294.15 20.96h-219.15v131.51h87.6602v646.57h131.49v-778.08zM579.04 20.96v778.08h131.49v-646.57h87.6602v-131.51h-219.15z" />
    <glyph glyph-name="X" unicode="X" 
d="M611.91 14.71v163.23c70.6895 36.29 120.53 125.079 120.53 229.05c0 103.979 -49.8408 192.76 -120.53 229.06v163.24c134.06 -31.9102 239.02 -159.54 263.2 -321.06h131.27v-142.461h-131.27c-24.1807 -161.52 -129.141 -289.149 -263.2 -321.06zM469.46 799.29
v-163.24c-70.6895 -36.2998 -120.53 -125.08 -120.53 -229.06c0 -103.971 49.8408 -192.76 120.53 -229.05v-163.23c-134.05 31.9102 -239.01 159.54 -263.189 321.06h-131.271v142.461h131.271c24.1797 161.52 129.14 289.149 263.189 321.06z" />
    <glyph glyph-name="Y" unicode="Y" horiz-adv-x="615" 
d="M540.69 407c0 -194.26 -115.221 -355.82 -268.46 -392.29v163.23c53.8496 27.6494 95.5996 85.75 112.439 157.829h-309.67v460.271h131.49v-317.81h178.17c-16.8301 72.0693 -58.5801 130.17 -112.43 157.819v163.24c153.239 -36.4697 268.46 -198.03 268.46 -392.29z
" />
    <glyph glyph-name="Z" unicode="Z" horiz-adv-x="845" 
d="M75 407c0 194.26 115.21 355.82 268.449 392.29v-163.24c-53.8398 -27.6494 -95.5898 -85.75 -112.43 -157.819h178.18v317.81h131.49v-460.271h-309.67c16.8301 -72.0791 58.5898 -130.18 112.43 -157.829v-163.23c-153.239 36.4697 -268.449 198.03 -268.449 392.29z
M770.79 17.96h-219.15v131.51h87.6602v646.57h131.49v-778.08z" />
    <glyph glyph-name="a" unicode="a" horiz-adv-x="1070" 
d="M75 294.93h151.35c27.2305 -54.4102 77.5703 -87.1602 133.54 -104.52v477.12h-87.6592v131.51h219.149v-772.6c-206.189 0 -377.67 115.229 -416.38 268.489zM995.42 294.93c-38.71 -153.26 -210.189 -268.489 -416.38 -268.489v772.6h219.15v-131.51h-87.6602v-477.12
c55.9697 17.3594 106.31 50.1094 133.54 104.52h151.35z" />
    <glyph glyph-name="b" unicode="b" horiz-adv-x="610" 
d="M75 11.0303v120.68c42.8799 3.19043 76.7002 43.5205 76.7002 92.9502c0 49.4199 -33.8203 89.7598 -76.7002 92.9502v164.79c42.8799 3.17969 76.7002 43.5195 76.7002 92.9395c0 49.4297 -33.8203 89.7598 -76.7002 92.9502v120.68
c115.62 -2.89941 208.19 -97.2793 208.19 -213.63c0 -72.6494 -36.1006 -136.74 -91.3701 -175.34c55.2695 -38.5996 91.3701 -102.69 91.3701 -175.34c0 -116.351 -92.5703 -210.73 -208.19 -213.63zM316.06 789.04h219.15v-131.51h-87.6602v-515.061h87.6602v-131.51
h-219.15v778.08z" />
    <glyph glyph-name="c" unicode="c" horiz-adv-x="1048" 
d="M524.25 467.27c-69.6807 0 -126.011 66.1406 -126.011 147.95c0 81.8105 56.3301 147.94 126.011 147.94c69.6895 0 126.01 -66.1299 126.01 -147.94c0 -81.8096 -56.3203 -147.95 -126.01 -147.95zM524.25 50.8398c-69.6807 0 -126.011 66.1299 -126.011 147.94
c0 81.8096 56.3301 147.95 126.011 147.95c69.6895 0 126.01 -66.1406 126.01 -147.95c0 -81.8105 -56.3203 -147.94 -126.01 -147.94zM75 407c0 194.26 115.21 355.82 268.449 392.29v-163.24c-70.6895 -36.2998 -120.529 -125.08 -120.529 -229.06
c0 -103.971 49.8398 -192.76 120.529 -229.05v-163.23c-153.239 36.4697 -268.449 198.03 -268.449 392.29zM973.51 407c0 -194.26 -115.22 -355.82 -268.46 -392.29v163.23c70.6895 36.29 120.529 125.079 120.529 229.05c0 103.979 -49.8398 192.76 -120.529 229.06
v163.24c153.24 -36.4697 268.46 -198.03 268.46 -392.29z" />
    <glyph glyph-name="d" unicode="d" horiz-adv-x="818" 
d="M743.4 17.96h-219.15v131.51h87.6602v515.061h-87.6602v131.51h219.15v-778.08zM469.47 799.29v-163.24c-70.6895 -36.2998 -120.54 -125.08 -120.54 -229.06c0 -103.971 49.8506 -192.76 120.54 -229.05v-163.23c-134.06 31.9102 -239.02 159.54 -263.199 321.06
h-131.271v142.461h131.271c24.1797 161.52 129.14 289.149 263.199 321.06z" />
    <glyph glyph-name="e" unicode="e" horiz-adv-x="719" 
d="M272.23 799.04h131.489v-778.08h-131.489v778.08zM75 799.04h131.49v-778.08h-131.49v778.08zM436.59 234.66c0 72.6494 36.1006 136.74 91.3701 175.34c-55.2695 38.5996 -91.3701 102.69 -91.3701 175.34c0 116.351 92.5801 210.73 208.19 213.63v-120.68
c-42.8799 -3.19043 -76.7002 -43.5205 -76.7002 -92.9502c0 -49.4199 33.8203 -89.7598 76.7002 -92.9395v-164.79c-42.8799 -3.19043 -76.7002 -43.5303 -76.7002 -92.9502c0 -49.4297 33.8203 -89.7598 76.7002 -92.9502v-120.68
c-115.61 2.89941 -208.19 97.2793 -208.19 213.63z" />
    <glyph glyph-name="f" unicode="f" horiz-adv-x="862" 
d="M787.23 525.07h-151.351c-27.2295 54.4102 -77.5703 87.1602 -133.54 104.52v-477.12h87.6602v-131.51h-219.15v772.6c206.19 0 377.671 -115.229 416.381 -268.489zM294.15 20.96h-219.15v131.51h87.6602v646.57h131.49v-778.08z" />
    <glyph glyph-name="g" unicode="g" horiz-adv-x="741" 
d="M666.7 17.96h-219.15v131.51h87.6602v515.061h-87.6602v131.51h219.15v-778.08zM140.74 14.71v163.23c53.8496 27.6494 95.5996 85.75 112.439 157.829h-178.18v142.461h178.18c-16.8398 72.0693 -58.5898 130.17 -112.439 157.819v163.24
c153.24 -36.4697 268.46 -198.03 268.46 -392.29s-115.22 -355.82 -268.46 -392.29z" />
    <glyph glyph-name="h" unicode="h" horiz-adv-x="675" 
d="M294.15 20.96h-219.15v131.51h87.6602v646.57h131.49v-778.08zM381.81 20.96v778.08h131.48v-646.57h87.6602v-131.51h-219.141z" />
    <glyph glyph-name="i" unicode="i" 
d="M75 305.89h151.35c27.2305 -54.4092 77.5703 -87.1592 133.54 -104.52v246.99h131.49v-410.96c-206.189 0 -377.67 115.229 -416.38 268.489zM590 37.4004v410.96h131.49v-246.99c55.96 17.3604 106.31 50.1104 133.54 104.52h151.35
c-38.71 -153.26 -210.189 -268.489 -416.38 -268.489zM540.69 503.15c-69.6807 0 -126.011 66.1299 -126.011 147.949c0 81.8105 56.3301 147.94 126.011 147.94c69.6797 0 126.01 -66.1299 126.01 -147.94c0 -81.8193 -56.3301 -147.949 -126.01 -147.949z" />
    <glyph glyph-name="j" unicode="j" horiz-adv-x="917" 
d="M75 294.93h151.35c27.2305 -54.4102 77.5703 -87.1602 133.54 -104.52v477.12h-87.6592v131.51h219.149v-772.6c-206.189 0 -377.67 115.229 -416.38 268.489zM716.01 470.27c-69.6895 0 -126.01 66.1406 -126.01 147.95c0 81.8105 56.3203 147.94 126.01 147.94
c69.6807 0 126.011 -66.1299 126.011 -147.94c0 -81.8096 -56.3301 -147.95 -126.011 -147.95zM716.01 42.8799c-69.6895 0 -126.01 66.1299 -126.01 147.94c0 81.8193 56.3203 147.949 126.01 147.949c69.6807 0 126.011 -66.1299 126.011 -147.949
c0 -81.8105 -56.3301 -147.94 -126.011 -147.94z" />
    <glyph glyph-name="k" unicode="k" horiz-adv-x="648" 
d="M75 407c0 194.26 115.21 355.82 268.449 392.29v-163.24c-53.8398 -27.6494 -95.5898 -85.75 -112.43 -157.819h211.05v317.81h131.49v-778.08h-131.49v317.81h-211.05c16.8301 -72.0791 58.5898 -130.18 112.43 -157.829v-163.23
c-153.239 36.4697 -268.449 198.03 -268.449 392.29z" />
    <glyph glyph-name="l" unicode="l" horiz-adv-x="917" 
d="M392.76 799.04h131.49v-642.51c83.5498 25.9795 112.99 68.71 166.42 127.439h151.351c-68.1406 -120.649 -185.851 -269.25 -383.511 -268.489c-198.18 -1.44043 -315.37 147.84 -383.51 268.489h151.35c53.4209 -58.7295 82.8604 -101.46 166.41 -127.439v642.51z" />
    <glyph glyph-name="m" unicode="m" horiz-adv-x="917" 
d="M392.77 796.04h131.49v-778.08h-131.49v778.08zM343.46 407c0 -194.26 -115.21 -355.82 -268.46 -392.29v163.23c70.6895 36.29 120.54 125.079 120.54 229.05c0 103.979 -49.8506 192.76 -120.54 229.06v163.24c153.25 -36.4697 268.46 -198.03 268.46 -392.29z
M573.57 407c0 194.26 115.21 355.82 268.46 392.29v-163.24c-70.6904 -36.2998 -120.54 -125.08 -120.54 -229.06c0 -103.971 49.8496 -192.76 120.54 -229.05v-163.23c-153.25 36.4697 -268.46 198.03 -268.46 392.29z" />
    <glyph glyph-name="n" unicode="n" horiz-adv-x="686" 
d="M294.15 796.04v-778.08h-219.15v131.51h87.6602v515.061h-87.6602v131.51h219.15zM343.45 407c0 194.26 115.22 355.82 268.46 392.29v-163.24c-70.6904 -36.2998 -120.53 -125.08 -120.53 -229.06c0 -103.971 49.8398 -192.76 120.53 -229.05v-163.23
c-153.24 36.4697 -268.46 198.03 -268.46 392.29z" />
    <glyph glyph-name="o" unicode="o" horiz-adv-x="1169" 
d="M699.57 14.71v163.23c70.6895 36.29 120.529 125.079 120.529 229.05c0 103.979 -49.8398 192.76 -120.529 229.06v163.24c134.06 -31.9102 239.02 -159.54 263.189 -321.06h131.28v-142.461h-131.28c-24.1699 -161.52 -129.13 -289.149 -263.189 -321.06zM469.46 799.29
v-163.24c-70.6895 -36.2998 -120.53 -125.08 -120.53 -229.06c0 -103.971 49.8408 -192.76 120.53 -229.05v-163.23c-134.05 31.9102 -239.01 159.54 -263.189 321.06h-131.271v142.461h131.271c24.1797 161.52 129.13 289.149 263.189 321.06zM584.521 259.05
c-69.6807 0 -126.011 66.1406 -126.011 147.95s56.3301 147.94 126.011 147.94c69.6797 0 126.01 -66.1309 126.01 -147.94s-56.3301 -147.95 -126.01 -147.95z" />
    <glyph glyph-name="p" unicode="p" horiz-adv-x="763" 
d="M75 574.38c0 116.351 92.5703 210.74 208.19 213.63v-120.68c-42.8906 -3.19043 -76.7002 -43.5205 -76.7002 -92.9502c0 -49.4199 33.8096 -89.7598 76.7002 -92.9395v-120.69c-115.62 2.90039 -208.19 97.29 -208.19 213.63zM688.61 574.38
c0 -116.34 -92.5703 -210.729 -208.19 -213.63v120.69c42.8896 3.17969 76.7002 43.5195 76.7002 92.9395c0 49.4297 -33.8105 89.7598 -76.7002 92.9502v120.68c115.62 -2.88965 208.19 -97.2793 208.19 -213.63zM447.55 20.96h-219.149v131.51h87.6592v646.57h131.49
v-778.08z" />
    <glyph glyph-name="q" unicode="q" horiz-adv-x="692" 
d="M348.93 14.71v163.23c53.8506 27.6494 95.6006 85.75 112.44 157.829h-178.18v142.461h178.18c-16.8398 72.0693 -58.5898 130.17 -112.44 157.819v163.24c153.25 -36.4697 268.46 -198.03 268.46 -392.29s-115.21 -355.82 -268.46 -392.29zM75 796.04h131.49v-646.57
h87.6602v-131.51h-219.15v778.08z" />
    <glyph glyph-name="r" unicode="r" horiz-adv-x="960" 
d="M885.85 407c0 -194.26 -115.22 -355.82 -268.46 -392.29v163.23c70.6895 36.29 120.53 125.079 120.53 229.05c0 103.979 -49.8408 192.76 -120.53 229.06v163.24c153.24 -36.4697 268.46 -198.03 268.46 -392.29zM75 407c0 194.26 115.21 355.82 268.449 392.29v-163.24
c-70.6895 -36.2998 -120.529 -125.08 -120.529 -229.06c0 -103.971 49.8398 -192.76 120.529 -229.05v-163.23c-153.239 36.4697 -268.449 198.03 -268.449 392.29zM387.279 796.04h186.28v-131.51h-54.79v-515.061h54.79v-131.51h-186.28v778.08z" />
    <glyph glyph-name="s" unicode="s" 
d="M75 294.93h151.35c27.2305 -54.4102 77.5703 -87.1602 133.54 -104.52v477.12h-87.6592v131.51h219.149v-772.6c-206.189 0 -377.67 115.229 -416.38 268.489zM1006.38 525.07h-151.35c-27.2305 54.4102 -77.5801 87.1602 -133.54 104.52v-477.12h87.6602v-131.51
h-219.15v772.6c206.19 0 377.67 -115.229 416.38 -268.489z" />
    <glyph glyph-name="t" unicode="t" 
d="M1006.38 531.03h-151.35c-27.2305 54.3994 -77.5801 87.1602 -133.54 104.52v-246.99h-131.49v410.96c206.19 0 377.67 -115.229 416.38 -268.489zM491.38 799.52v-410.96h-131.49v246.99c-55.9697 -17.3594 -106.31 -50.1201 -133.54 -104.52h-151.35
c38.71 153.26 210.19 268.489 416.38 268.489zM540.69 37.8799c-69.6807 0 -126.011 66.1299 -126.011 147.94c0 81.8193 56.3301 147.949 126.011 147.949c69.6797 0 126.01 -66.1299 126.01 -147.949c0 -81.8105 -56.3301 -147.94 -126.01 -147.94z" />
    <glyph glyph-name="u" unicode="u" horiz-adv-x="796" 
d="M316.06 799.04h131.49v-778.08h-372.55v778.08h131.49v-646.57h109.569v646.57zM721.49 20.96h-219.15v131.51h87.6602v646.57h131.49v-778.08z" />
    <glyph glyph-name="v" unicode="v" horiz-adv-x="643" 
d="M343.46 407c0 -194.26 -115.21 -355.82 -268.46 -392.29v163.23c70.6895 36.29 120.54 125.079 120.54 229.05c0 103.979 -49.8506 192.76 -120.54 229.06v163.24c153.25 -36.4697 268.46 -198.03 268.46 -392.29zM568.09 17.96h-219.15v131.51h87.6602v646.57h131.49
v-778.08z" />
    <glyph glyph-name="w" unicode="w" horiz-adv-x="873" 
d="M370.85 799.04h131.49v-778.08h-131.49v778.08zM294.15 20.96h-219.15v131.51h87.6602v646.57h131.49v-778.08zM579.04 20.96v778.08h131.49v-646.57h87.6602v-131.51h-219.15z" />
    <glyph glyph-name="x" unicode="x" 
d="M611.91 14.71v163.23c70.6895 36.29 120.53 125.079 120.53 229.05c0 103.979 -49.8408 192.76 -120.53 229.06v163.24c134.06 -31.9102 239.02 -159.54 263.2 -321.06h131.27v-142.461h-131.27c-24.1807 -161.52 -129.141 -289.149 -263.2 -321.06zM469.46 799.29
v-163.24c-70.6895 -36.2998 -120.53 -125.08 -120.53 -229.06c0 -103.971 49.8408 -192.76 120.53 -229.05v-163.23c-134.05 31.9102 -239.01 159.54 -263.189 321.06h-131.271v142.461h131.271c24.1797 161.52 129.14 289.149 263.189 321.06z" />
    <glyph glyph-name="y" unicode="y" horiz-adv-x="615" 
d="M540.69 407c0 -194.26 -115.221 -355.82 -268.46 -392.29v163.23c53.8496 27.6494 95.5996 85.75 112.439 157.829h-309.67v460.271h131.49v-317.81h178.17c-16.8301 72.0693 -58.5801 130.17 -112.43 157.819v163.24c153.239 -36.4697 268.46 -198.03 268.46 -392.29z
" />
    <glyph glyph-name="z" unicode="z" horiz-adv-x="845" 
d="M75 407c0 194.26 115.21 355.82 268.449 392.29v-163.24c-53.8398 -27.6494 -95.5898 -85.75 -112.43 -157.819h178.18v317.81h131.49v-460.271h-309.67c16.8301 -72.0791 58.5898 -130.18 112.43 -157.829v-163.23c-153.239 36.4697 -268.449 198.03 -268.449 392.29z
M770.79 17.96h-219.15v131.51h87.6602v646.57h131.49v-778.08z" />
  </font>
</defs>
</svg>
