<?xml version="1.0" encoding="UTF-8" standalone="no"?>
<!DOCTYPE svg PUBLIC "-//W3C//DTD SVG 1.1//EN" "http://www.w3.org/Graphics/SVG/1.1/DTD/svg11.dtd">
<svg width="100%" height="100%" viewBox="0 0 110 137" version="1.1" xmlns="http://www.w3.org/2000/svg" xmlns:xlink="http://www.w3.org/1999/xlink" xml:space="preserve" xmlns:serif="http://www.serif.com/" style="fill-rule:evenodd;clip-rule:evenodd;stroke-linejoin:round;stroke-miterlimit:2;">
    <g transform="matrix(1,0,0,1,-924,-454)">
        <path d="M975,465.95L954.983,485.966C953.618,487.332 951.4,487.332 950.034,485.966C948.668,484.6 948.668,482.382 950.034,481.017L976.017,455.034C976.651,454.395 977.53,454 978.5,454C979.47,454 980.349,454.395 980.983,455.034L1006.97,481.017C1008.33,482.382 1008.33,484.6 1006.97,485.966C1005.6,487.332 1003.38,487.332 1002.02,485.966L982,465.95L982,539.5C982,541.432 980.432,543 978.5,543C976.568,543 975,541.432 975,539.5L975,465.95ZM994,498L1020.61,498C1028,498 1034,503.999 1034,511.389L1034,577.611C1034,585.001 1028,591 1020.61,591L937.389,591C929.999,591 924,585.001 924,577.611L924,511.389C924,503.999 929.999,498 937.389,498L962,498L962,505L934.087,505C932.383,505 931,506.383 931,508.087L931,579.913C931,581.617 932.383,583 934.087,583L1022.91,583C1024.62,583 1026,581.617 1026,579.913L1026,508.087C1026,506.383 1024.62,505 1022.91,505L994,505L994,498Z" style="fill:rgb(17,17,17);"/>
    </g>
</svg>
