<?xml version="1.0" encoding="UTF-8" standalone="no"?>
<!DOCTYPE svg PUBLIC "-//W3C//DTD SVG 1.1//EN" "http://www.w3.org/Graphics/SVG/1.1/DTD/svg11.dtd">
<svg width="100%" height="100%" viewBox="0 0 131 131" version="1.1" xmlns="http://www.w3.org/2000/svg" xmlns:xlink="http://www.w3.org/1999/xlink" xml:space="preserve" xmlns:serif="http://www.serif.com/" style="fill-rule:evenodd;clip-rule:evenodd;stroke-linejoin:round;stroke-miterlimit:2;">
    <g transform="matrix(1,0,0,1,-1090,-460)">
        <g transform="matrix(0.887515,-0.460778,0.460778,0.887515,-138.654,582.819)">
            <path d="M1148.79,548.17C1142.12,551.539 1134,551.767 1126.87,548.068C1115.12,541.965 1110.53,527.465 1116.63,515.709C1122.73,503.953 1137.23,499.364 1148.99,505.468C1156.01,509.11 1160.47,515.744 1161.63,523L1207.41,523C1207.85,520.849 1208.59,518.722 1209.65,516.678C1215.75,504.922 1230.25,500.333 1242.01,506.437C1253.76,512.54 1258.35,527.04 1252.25,538.796C1246.14,550.552 1231.64,555.141 1219.89,549.037C1213.03,545.478 1208.61,539.062 1207.33,532L1161.36,532C1160.91,533.982 1160.21,535.94 1159.23,537.827C1158.31,539.606 1157.19,541.222 1155.92,542.66L1181.54,580.157C1188.26,576.638 1196.53,576.345 1203.76,580.1C1215.52,586.204 1220.11,600.704 1214,612.46C1207.9,624.216 1193.4,628.805 1181.64,622.701C1169.89,616.598 1165.3,602.098 1171.4,590.342C1172.27,588.672 1173.31,587.147 1174.48,585.777L1148.79,548.17Z" style="fill:rgb(17,17,17);"/>
        </g>
    </g>
</svg>
